<?xml version="1.0" encoding="UTF-8" standalone="no"?><!DOCTYPE svg PUBLIC "-//W3C//DTD SVG 1.1//EN" "http://www.w3.org/Graphics/SVG/1.1/DTD/svg11.dtd"><svg width="100%" height="100%" viewBox="0 0 1720 721" version="1.1" xmlns="http://www.w3.org/2000/svg" xmlns:xlink="http://www.w3.org/1999/xlink" xml:space="preserve" xmlns:serif="http://www.serif.com/" style="fill-rule:evenodd;clip-rule:evenodd;stroke-linejoin:round;stroke-miterlimit:2;"><g><g><g><path d="M241.146,643.142c-16.732,0 -32.118,-5.339 -46.181,-16.059c-14.062,-10.764 -24.197,-24.74 -30.382,-41.927c-6.727,15.755 -16.753,27.821 -30.122,36.198c-13.325,8.333 -28.798,12.5 -46.441,12.5c-15.755,0 -29.232,-4.036 -40.451,-12.153c-11.176,-8.16 -20.204,-18.424 -27.083,-30.816c-6.944,-12.37 -12.088,-25.608 -15.451,-39.67c-3.342,-14.062 -5.035,-26.823 -5.035,-38.281c0,-18.099 3.602,-34.918 10.764,-50.434c7.183,-15.495 17.296,-27.886 30.382,-37.153c13.129,-9.31 28.255,-13.976 45.399,-13.976c12.435,0 23.177,2.648 32.205,7.899c9.071,5.208 16.493,10.46 22.222,15.712c1.432,-10.981 3.819,-25.543 7.118,-43.663c3.342,-18.099 5.99,-33.355 7.899,-45.747c2.365,-16.71 4.514,-34.375 6.424,-52.951c1.91,-18.62 2.865,-39.366 2.865,-62.24c0,-12.891 -0.608,-28.516 -1.823,-46.875c-1.172,-18.338 -2.474,-37.522 -3.906,-57.552c-1.454,-20.074 -3.125,-39.28 -5.035,-57.639c-1.91,-18.338 -3.559,-33.963 -4.948,-46.875c0,-7.639 2.973,-13.108 8.941,-16.406c5.946,-3.342 13.455,-5.035 22.483,-5.035c6.185,0 11.914,4.774 17.188,14.323c4.731,9.093 8.681,20.898 11.806,35.417c3.125,14.54 5.642,30.621 7.552,48.264l4.253,52.951c0.977,16.667 1.584,32.075 1.823,46.181c0.217,14.062 0.347,25.152 0.347,33.247c0,23.394 -1.345,44.748 -3.993,64.062c-2.604,19.271 -5.816,38.455 -9.635,57.552c-3.364,19.054 -6.467,39.193 -9.288,60.417c-2.843,21.246 -4.253,45.92 -4.253,74.045c0,13.845 1.302,28.168 3.906,42.969c2.604,14.757 7.335,27.257 14.236,37.5c6.944,10.243 16.363,15.365 28.299,15.365c11.914,0 22.049,-3.082 30.382,-9.288c8.377,-6.185 17.101,-15.972 26.128,-29.34c3.342,-4.275 7.161,-7.378 11.458,-9.288c4.275,-1.91 8.095,-2.865 11.458,-2.865c8.095,0 14.757,2.517 19.965,7.552c5.252,4.991 7.899,11.784 7.899,20.399c0,4.297 -1.194,8.811 -3.559,13.542c-7.118,11.003 -15.951,21.875 -26.476,32.639c-10.482,10.72 -22.396,19.661 -35.764,26.823c-13.368,7.118 -27.908,10.677 -43.576,10.677Zm-135.243,-60.069c10.981,0 18.75,-6.185 23.264,-18.576c4.514,-12.435 6.771,-25.109 6.771,-38.021c0,-9.028 -0.738,-16.623 -2.17,-22.83c-1.91,-10.981 -6.684,-20.269 -14.323,-27.865c-7.595,-7.639 -17.339,-11.458 -29.253,-11.458c-10.026,0 -17.665,5.621 -22.917,16.84c-5.273,11.176 -7.899,22.96 -7.899,35.33c0,17.665 3.819,33.16 11.458,46.528c7.639,13.368 19.314,20.052 35.069,20.052Z" style="fill-rule:nonzero;"/></g></g></g><g><g><g><path d="M437.876,646.007c-29.123,0 -53.95,-4.514 -74.479,-13.542c-20.486,-9.071 -37.153,-21.029 -50,-35.851c-12.891,-14.757 -22.331,-31.293 -28.299,-49.653c-5.946,-18.403 -8.941,-36.654 -8.941,-54.774c0,-18.576 4.427,-36.567 13.281,-53.993c8.811,-17.405 20.573,-31.858 35.33,-43.316c14.8,-11.458 31.033,-17.188 48.698,-17.188c12.847,0 26.063,3.95 39.67,11.806c13.585,7.878 22.786,18.034 27.604,30.469c2.821,7.595 4.253,16.385 4.253,26.389c0,14.366 -3.255,29.644 -9.722,45.833c-6.424,16.211 -15.256,31.597 -26.476,46.181c-11.176,14.54 -23.676,26.562 -37.5,36.111c10.004,8.116 19.401,12.999 28.212,14.67c8.854,1.628 21.636,2.431 38.368,2.431c12.37,0 22.96,-2.973 31.771,-8.941c8.854,-5.946 16.71,-12.977 23.611,-21.094c6.944,-8.095 13.737,-15.126 20.399,-21.094c6.641,-5.946 13.802,-8.941 21.441,-8.941c6.185,0 12.153,2.17 17.882,6.51c5.729,4.297 8.594,11.176 8.594,20.66c0,5.729 -1.194,10.503 -3.559,14.323c-10.482,20.551 -26.953,37.847 -49.392,51.91c-22.396,14.062 -45.985,21.094 -70.747,21.094Zm-96.615,-117.361c14.757,-10.004 26.671,-22.504 35.764,-37.5c9.071,-15.039 13.628,-28.516 13.628,-40.451c0,-12.37 -4.557,-18.576 -13.628,-18.576c-9.549,0 -17.795,3.342 -24.74,9.983c-6.901,6.662 -12.023,15.017 -15.365,25.087c-3.299,10.026 -4.948,20.03 -4.948,30.035c0,14.301 3.082,24.783 9.288,31.424Z" style="fill-rule:nonzero;"/></g></g></g><g><g><g><path d="M645.983,656.684c-24.783,0 -46.593,-6.207 -65.451,-18.576c-18.815,-12.37 -34.418,-29.796 -46.788,-52.257c-12.435,-22.396 -22.331,-49.327 -29.688,-80.816c-7.4,-31.467 -12.543,-66.059 -15.451,-103.733c-10.004,-0.911 -19.64,-1.736 -28.906,-2.431c-9.31,-0.738 -14.692,-3.754 -16.146,-9.028c-0.456,-2.821 -0.694,-6.988 -0.694,-12.5c0,-5.49 0.477,-9.201 1.389,-11.111c5.273,-6.185 11.155,-9.635 17.622,-10.33c6.424,-0.694 13.932,-1.302 22.483,-1.823c-0.456,-6.641 -1.302,-15.321 -2.517,-26.042c-1.215,-10.764 -2.17,-21.484 -2.865,-32.205c-0.694,-10.764 -1.042,-19.227 -1.042,-25.434c0,-4.275 0.738,-8.681 2.17,-13.194c1.389,-4.557 4.232,-6.858 8.507,-6.858c2.908,0 5.642,-0.109 8.247,-0.347c2.604,-0.217 5.122,-0.564 7.552,-1.042c5.208,-0.977 10.677,-0.738 16.406,0.694c4.818,0.477 7.682,2.865 8.594,7.205l2.865,20.747c1.454,9.505 2.648,21.419 3.559,35.764c0.977,14.301 1.693,27.648 2.17,40.017l110.851,0.694c5.252,0 9.549,3.472 12.847,10.417c3.342,6.901 4.557,12.5 3.646,16.84c-2.387,6.207 -7.509,11.198 -15.365,15.017c-7.878,3.819 -20.182,5.729 -36.892,5.729l-69.358,-0.781c1.432,24.371 4.536,48.589 9.288,72.656c4.731,24.089 11.198,45.66 19.358,64.757c8.095,19.054 18.229,34.288 30.382,45.747c12.153,11.458 26.324,17.188 42.535,17.188c11.914,0 21.918,-2.865 30.035,-8.594c8.095,-5.729 15.126,-12.76 21.094,-21.094c5.946,-8.333 12.023,-16.797 18.229,-25.434c3.819,-6.185 7.986,-10.243 12.5,-12.153c4.557,-1.91 8.767,-2.865 12.587,-2.865c6.185,0 11.914,2.148 17.188,6.424c3.819,2.908 6.293,6.38 7.465,10.417c1.215,4.058 1.823,7.986 1.823,11.806c0,4.753 -1.454,9.766 -4.34,15.017c-7.595,12.391 -16.406,24.913 -26.476,37.587c-10.026,12.63 -22.179,23.09 -36.458,31.424c-14.301,8.333 -31.944,12.5 -52.951,12.5Z" style="fill-rule:nonzero;"/></g></g></g><g><g><g><path d="M975.127,633.854c-16.276,0 -28.819,-4.275 -37.674,-12.847c-8.811,-8.615 -16.189,-19.358 -22.135,-32.205c-5.968,-12.891 -12.999,-26.042 -21.094,-39.41c0,6.207 -0.239,11.089 -0.694,14.67c-0.477,3.602 -1.649,9.201 -3.559,16.84c-4.818,14.757 -11.263,26.345 -19.358,34.722c-8.116,8.333 -18.837,13.694 -32.205,16.059c-15.234,2.843 -30.707,0.586 -46.441,-6.771c-15.755,-7.4 -30.187,-18.012 -43.316,-31.858c-13.064,-13.824 -23.655,-29.557 -31.771,-47.222c-8.16,-17.643 -12.24,-35.525 -12.24,-53.646c0,-19.097 4.774,-36.849 14.323,-53.299c9.549,-16.428 21.918,-29.774 37.153,-40.017c15.278,-10.286 31.51,-15.451 48.698,-15.451c25.738,0 46.962,8.377 63.628,25.087c16.71,16.667 31.033,36.936 42.969,60.764c3.819,8.637 8.095,19.249 12.847,31.858c4.796,12.63 9.918,25.043 15.365,37.24c5.49,12.153 11.328,22.287 17.535,30.382c6.25,8.116 12.695,12.153 19.358,12.153c10.46,0 18.576,-4.644 24.306,-13.976c5.729,-9.31 11.675,-17.752 17.882,-25.347c6.185,-6.706 12.609,-9.939 19.271,-9.722c6.706,0.239 11.74,1.302 15.104,3.212c6.641,3.364 11.046,8.984 13.194,16.84c2.127,7.878 0.608,15.625 -4.601,23.264c-10.547,15.755 -23.785,29.47 -39.757,41.146c-15.972,11.697 -31.576,17.535 -46.788,17.535Zm-150.26,-56.51c9.028,0 16.168,-5.469 21.441,-16.406c5.252,-10.981 7.899,-25.304 7.899,-42.969c-0.477,-13.368 -1.91,-26.345 -4.34,-38.976c-2.387,-12.674 -6.771,-23.047 -13.194,-31.163c-6.424,-8.095 -16.102,-12.153 -28.993,-12.153c-9.549,0 -17.925,3.103 -25.087,9.288c-7.118,6.207 -12.587,13.845 -16.406,22.917c-3.819,9.028 -5.729,17.86 -5.729,26.476c0,12.847 3.212,25.608 9.635,38.281c6.467,12.63 14.714,23.242 24.74,31.858c10.004,8.572 20.009,12.847 30.035,12.847Z" style="fill-rule:nonzero;"/></g></g></g><g><g><g><path d="M1166.841,720.399c-42.014,0 -74.957,-13.607 -98.785,-40.799c-12.391,-13.845 -23.22,-31.597 -32.465,-53.299c-9.31,-21.701 -18.012,-47.331 -26.128,-76.91c-7.161,-24.306 -12.891,-47.07 -17.188,-68.316c-4.275,-21.224 -7.856,-41.602 -10.764,-61.111c-2.365,-19.553 -4.015,-39.106 -4.948,-58.681c-0.977,-19.553 -1.476,-40.061 -1.476,-61.545c0,-7.639 0.13,-15.625 0.347,-23.958c0.239,-8.333 0.608,-17.036 1.128,-26.128c0.933,-18.576 2.582,-37.153 4.948,-55.729c2.387,-18.62 5.968,-36.762 10.764,-54.427c2.387,-9.028 5.122,-17.47 8.247,-25.347c3.082,-7.856 6.51,-15.386 10.33,-22.569c7.639,-13.824 16.84,-24.913 27.604,-33.247c10.699,-8.333 23.438,-12.5 38.194,-12.5c11.458,0 21.701,5.013 30.729,15.017c9.071,10.026 16.71,23.351 22.917,40.017c6.185,17.188 10.699,36.979 13.542,59.375c2.886,22.396 4.34,46.246 4.34,71.528c0,34.852 -2.04,68.62 -6.076,101.302c-4.058,32.639 -9.418,63.498 -16.059,92.535c-7.183,29.123 -15.43,55.859 -24.74,80.208c-9.266,24.306 -19.401,45.53 -30.382,63.628c4.796,12.391 10.764,26.215 17.882,41.493c7.161,15.278 16.949,28.277 29.34,38.976c12.435,10.699 28.668,16.059 48.698,16.059c17.643,0 34.57,-6.576 50.781,-19.705c16.189,-13.064 31.207,-29.015 45.052,-47.83c13.824,-18.859 25.977,-36.632 36.458,-53.299c2.365,-3.819 5.686,-7.031 9.983,-9.635c4.34,-2.648 8.876,-3.993 13.628,-3.993c6.185,0 12.261,2.409 18.229,7.205c5.946,4.753 8.941,11.675 8.941,20.747c0,4.753 -1.194,9.266 -3.559,13.542c-1.454,2.387 -3.255,5.36 -5.382,8.941c-2.148,3.602 -4.405,8.03 -6.771,13.281c-5.273,9.028 -11.849,19.054 -19.705,30.035c-7.878,10.938 -17.057,22.135 -27.517,33.594c-4.753,5.252 -9.983,10.503 -15.712,15.712c-5.729,5.252 -11.697,10.026 -17.882,14.323c-11.936,9.071 -25.174,16.602 -39.757,22.569c-14.54,5.946 -30.122,8.941 -46.788,8.941Zm-118.056,-217.448c9.028,-21.463 16.753,-45.681 23.177,-72.656c6.467,-26.953 11.632,-54.384 15.451,-82.292c3.819,-27.886 5.729,-53.993 5.729,-78.299c0,-19.553 -0.499,-39.453 -1.476,-59.722c-0.933,-20.247 -2.582,-38.498 -4.948,-54.774c-1.454,-13.303 -3.624,-25.911 -6.51,-37.847c-2.843,-11.914 -6.163,-17.882 -9.983,-17.882c-3.819,0 -7.639,3.559 -11.458,10.677c-3.819,7.639 -7.292,17.188 -10.417,28.646c-3.082,11.458 -6.033,24.805 -8.854,40.017c-1.432,7.639 -2.734,15.169 -3.906,22.569c-1.215,7.422 -2.3,14.931 -3.299,22.569c-1.91,15.234 -3.429,29.753 -4.601,43.576c-1.215,13.845 -1.823,25.76 -1.823,35.764c0,18.641 0.738,39.996 2.17,64.062c1.454,24.089 3.971,48.047 7.552,71.875c3.537,23.85 7.921,45.095 13.194,63.715Z" style="fill-rule:nonzero;"/></g></g></g><g><g><g><path d="M1316.364,350.521c-10.525,0.477 -19.227,-2.018 -26.128,-7.465c-6.944,-5.49 -9.918,-15.647 -8.941,-30.469c2.387,-9.484 7.27,-16.97 14.67,-22.483c7.357,-5.49 16.298,-8.247 26.823,-8.247c10.46,0 18.685,3.711 24.653,11.111c5.946,7.422 8.941,14.453 8.941,21.094c-0.477,10.026 -3.689,18.381 -9.635,25.087c-5.968,6.662 -16.102,10.46 -30.382,11.372Zm83.681,299.045c-22.461,1.432 -40.842,-2.387 -55.122,-11.458c-14.301,-9.071 -25.477,-21.723 -33.594,-37.934c-8.095,-16.189 -14.518,-34.549 -19.271,-55.035c-4.796,-20.53 -9.115,-41.775 -12.934,-63.715c-1.432,-8.55 0.239,-15.451 5.035,-20.66c4.753,-5.252 10.482,-8.854 17.188,-10.764c4.297,-0.977 10.026,-0.13 17.188,2.517c7.118,2.604 11.632,7.964 13.542,16.059c3.342,10.482 5.99,22.049 7.899,34.722c1.91,12.63 4.167,25 6.771,37.153c2.604,12.153 6.771,22.895 12.5,32.205c5.729,9.332 14.323,16.124 25.781,20.399c9.549,3.364 18.945,2.409 28.212,-2.865c9.31,-5.252 17.904,-12.283 25.781,-21.094c7.856,-8.854 14.171,-17.057 18.924,-24.653c2.431,-4.796 5.773,-8.16 10.069,-10.069c4.275,-1.91 8.55,-2.865 12.847,-2.865c2.821,0 5.556,0.499 8.16,1.476c2.648,0.933 5.165,2.127 7.552,3.559c5.729,3.819 9.418,9.549 11.111,17.188c1.671,7.595 0.109,14.735 -4.688,21.441c-11.936,17.665 -26.107,34.115 -42.535,49.392c-16.45,15.234 -36.589,23.546 -60.417,25Z" style="fill-rule:nonzero;"/></g></g></g><g><g><g><path d="M1595.363,646.007c-29.123,0 -53.95,-4.514 -74.479,-13.542c-20.486,-9.071 -37.153,-21.029 -50,-35.851c-12.891,-14.757 -22.331,-31.293 -28.299,-49.653c-5.946,-18.403 -8.941,-36.654 -8.941,-54.774c0,-18.576 4.427,-36.567 13.281,-53.993c8.811,-17.405 20.573,-31.858 35.33,-43.316c14.8,-11.458 31.033,-17.188 48.698,-17.188c12.847,0 26.063,3.95 39.67,11.806c13.585,7.878 22.786,18.034 27.604,30.469c2.821,7.595 4.253,16.385 4.253,26.389c0,14.366 -3.255,29.644 -9.722,45.833c-6.424,16.211 -15.256,31.597 -26.476,46.181c-11.176,14.54 -23.676,26.562 -37.5,36.111c10.004,8.116 19.401,12.999 28.212,14.67c8.854,1.628 21.636,2.431 38.368,2.431c12.37,0 22.96,-2.973 31.771,-8.941c8.854,-5.946 16.71,-12.977 23.611,-21.094c6.944,-8.095 13.737,-15.126 20.399,-21.094c6.641,-5.946 13.802,-8.941 21.441,-8.941c6.185,0 12.153,2.17 17.882,6.51c5.729,4.297 8.594,11.176 8.594,20.66c0,5.729 -1.194,10.503 -3.559,14.323c-10.482,20.551 -26.953,37.847 -49.392,51.91c-22.396,14.062 -45.985,21.094 -70.747,21.094Zm-96.615,-117.361c14.757,-10.004 26.671,-22.504 35.764,-37.5c9.071,-15.039 13.628,-28.516 13.628,-40.451c0,-12.37 -4.557,-18.576 -13.628,-18.576c-9.549,0 -17.795,3.342 -24.74,9.983c-6.901,6.662 -12.023,15.017 -15.365,25.087c-3.299,10.026 -4.948,20.03 -4.948,30.035c0,14.301 3.082,24.783 9.288,31.424Z" style="fill-rule:nonzero;"/></g></g></g><g><clipPath id="_clip1"><rect x="1245.506" y="238.507" width="161.111" height="139.909"/></clipPath><g clip-path="url(#_clip1)"><path d="M1326.366,378.676c0,0 -111.068,-83.312 -69.423,-124.957c41.645,-41.645 76.367,34.722 76.367,34.722c0,0 27.756,-76.367 62.478,-34.722c34.701,41.645 -69.423,124.957 -69.423,124.957Z" style="fill-rule:nonzero;"/></g></g></svg>